<svg width="200" height="83" viewBox="0 0 200 83" fill="none" xmlns="http://www.w3.org/2000/svg">
<path d="M21.2 -1.90735e-06H24.12V28H21.2V-1.90735e-06ZM3.68 28H0.72V-1.90735e-06H3.68V28ZM21.48 15.08H3.36V12.48H21.48V15.08ZM32.8916 28V7H35.7316V23.68L49.7716 7H52.2916V28H49.4516V11.28L35.4516 28H32.8916ZM60.4306 28V7H63.2706V16.28H76.5106V7H79.3506V28H76.5106V18.72H63.2706V28H60.4306ZM96.0628 28.2C94.0361 28.2 92.2095 27.7467 90.5828 26.84C88.9828 25.9067 87.7161 24.64 86.7828 23.04C85.8495 21.4133 85.3828 19.56 85.3828 17.48C85.3828 15.3733 85.8495 13.52 86.7828 11.92C87.7161 10.32 88.9828 9.06667 90.5828 8.16C92.1828 7.25333 94.0095 6.8 96.0628 6.8C98.1428 6.8 99.9828 7.25333 101.583 8.16C103.209 9.06667 104.476 10.32 105.383 11.92C106.316 13.52 106.783 15.3733 106.783 17.48C106.783 19.56 106.316 21.4133 105.383 23.04C104.476 24.64 103.209 25.9067 101.583 26.84C99.9561 27.7467 98.1161 28.2 96.0628 28.2ZM96.0628 25.68C97.5828 25.68 98.9295 25.3467 100.103 24.68C101.276 23.9867 102.196 23.0267 102.863 21.8C103.556 20.5467 103.903 19.1067 103.903 17.48C103.903 15.8267 103.556 14.3867 102.863 13.16C102.196 11.9333 101.276 10.9867 100.103 10.32C98.9295 9.62667 97.5961 9.28 96.1028 9.28C94.6095 9.28 93.2761 9.62667 92.1028 10.32C90.9295 10.9867 89.9961 11.9333 89.3028 13.16C88.6095 14.3867 88.2628 15.8267 88.2628 17.48C88.2628 19.1067 88.6095 20.5467 89.3028 21.8C89.9961 23.0267 90.9295 23.9867 92.1028 24.68C93.2761 25.3467 94.5961 25.68 96.0628 25.68ZM21.2 49H24.12V77H21.2V49ZM3.68 77H0.72V49H3.68V77ZM21.48 64.08H3.36V61.48H21.48V64.08ZM41.5316 77.2C39.5049 77.2 37.6782 76.7467 36.0516 75.84C34.4516 74.9067 33.1849 73.64 32.2516 72.04C31.3182 70.4133 30.8516 68.56 30.8516 66.48C30.8516 64.3733 31.3182 62.52 32.2516 60.92C33.1849 59.32 34.4516 58.0667 36.0516 57.16C37.6516 56.2533 39.4782 55.8 41.5316 55.8C43.6116 55.8 45.4516 56.2533 47.0516 57.16C48.6782 58.0667 49.9449 59.32 50.8516 60.92C51.7849 62.52 52.2516 64.3733 52.2516 66.48C52.2516 68.56 51.7849 70.4133 50.8516 72.04C49.9449 73.64 48.6782 74.9067 47.0516 75.84C45.4249 76.7467 43.5849 77.2 41.5316 77.2ZM41.5316 74.68C43.0516 74.68 44.3982 74.3467 45.5716 73.68C46.7449 72.9867 47.6649 72.0267 48.3316 70.8C49.0249 69.5467 49.3716 68.1067 49.3716 66.48C49.3716 64.8267 49.0249 63.3867 48.3316 62.16C47.6649 60.9333 46.7449 59.9867 45.5716 59.32C44.3982 58.6267 43.0649 58.28 41.5716 58.28C40.0782 58.28 38.7449 58.6267 37.5716 59.32C36.3982 59.9867 35.4649 60.9333 34.7716 62.16C34.0782 63.3867 33.7316 64.8267 33.7316 66.48C33.7316 68.1067 34.0782 69.5467 34.7716 70.8C35.4649 72.0267 36.3982 72.9867 37.5716 73.68C38.7449 74.3467 40.0649 74.68 41.5316 74.68ZM58.3213 77V56H67.6013C69.9746 56 71.8413 56.4533 73.2013 57.36C74.5879 58.2667 75.2813 59.6 75.2813 61.36C75.2813 63.0667 74.6279 64.3867 73.3213 65.32C72.0146 66.2267 70.2946 66.68 68.1613 66.68L68.7213 65.84C71.2279 65.84 73.0679 66.3067 74.2413 67.24C75.4146 68.1733 76.0013 69.52 76.0013 71.28C76.0013 73.0933 75.3346 74.5067 74.0013 75.52C72.6946 76.5067 70.6546 77 67.8813 77H58.3213ZM61.0813 74.76H67.7613C69.5479 74.76 70.8946 74.48 71.8013 73.92C72.7346 73.3333 73.2013 72.4 73.2013 71.12C73.2013 69.84 72.7879 68.9067 71.9613 68.32C71.1346 67.7333 69.8279 67.44 68.0413 67.44H61.0813V74.76ZM61.0813 65.32H67.4013C69.0279 65.32 70.2679 65.0133 71.1213 64.4C72.0013 63.7867 72.4413 62.8933 72.4413 61.72C72.4413 60.5467 72.0013 59.6667 71.1213 59.08C70.2679 58.4933 69.0279 58.2 67.4013 58.2H61.0813V65.32ZM82.6572 77V56H85.4972V72.68L99.5372 56H102.057V77H99.2172V60.28L85.2172 77H82.6572ZM110.196 77V56H113.036V74.52H125.876V56H128.716V77H110.196ZM129.436 82.08V76.76L130.156 77H125.876V74.52H132.116V82.08H129.436ZM152.94 77L144.3 66.6L146.66 65.2L156.3 77H152.94ZM137.54 77V56H140.38V77H137.54ZM139.5 67.64V65.2H146.26V67.64H139.5ZM146.9 66.8L144.26 66.4L152.62 56H155.7L146.9 66.8ZM173.432 77V72.36L173.312 71.6V63.84C173.312 62.0533 172.805 60.68 171.792 59.72C170.805 58.76 169.325 58.28 167.352 58.28C165.992 58.28 164.698 58.5067 163.472 58.96C162.245 59.4133 161.205 60.0133 160.352 60.76L159.072 58.64C160.138 57.7333 161.418 57.04 162.912 56.56C164.405 56.0533 165.978 55.8 167.632 55.8C170.352 55.8 172.445 56.48 173.912 57.84C175.405 59.1733 176.152 61.2133 176.152 63.96V77H173.432ZM166.192 77.2C164.618 77.2 163.245 76.9467 162.072 76.44C160.925 75.9067 160.045 75.1867 159.432 74.28C158.818 73.3467 158.512 72.28 158.512 71.08C158.512 69.9867 158.765 69 159.272 68.12C159.805 67.2133 160.658 66.4933 161.832 65.96C163.032 65.4 164.632 65.12 166.632 65.12H173.872V67.24H166.712C164.685 67.24 163.272 67.6 162.472 68.32C161.698 69.04 161.312 69.9333 161.312 71C161.312 72.2 161.778 73.16 162.712 73.88C163.645 74.6 164.952 74.96 166.632 74.96C168.232 74.96 169.605 74.6 170.752 73.88C171.925 73.1333 172.778 72.0667 173.312 70.68L173.952 72.64C173.418 74.0267 172.485 75.1333 171.152 75.96C169.845 76.7867 168.192 77.2 166.192 77.2ZM197.272 77V69.44L197.792 70.04H190.672C187.979 70.04 185.872 69.4533 184.352 68.28C182.832 67.1067 182.072 65.4 182.072 63.16C182.072 60.76 182.885 58.9733 184.512 57.8C186.139 56.6 188.312 56 191.032 56H199.872V77H197.272ZM181.912 77L187.672 68.92H190.632L184.992 77H181.912ZM197.272 68.6V57.64L197.792 58.48H191.112C189.165 58.48 187.645 58.8533 186.552 59.6C185.485 60.3467 184.952 61.56 184.952 63.24C184.952 66.36 186.939 67.92 190.912 67.92H197.792L197.272 68.6Z" fill="black"/>
</svg>
